<svg width="139.596" height="97.338" viewBox="0 0 139.596 97.338" xmlns="http://www.w3.org/2000/svg">
	<g id="svgGroup" stroke-linecap="round" fill-rule="evenodd" font-size="9pt" stroke="#000" stroke-width="0.25mm" fill="none" style="stroke:#000;stroke-width:0.25mm;fill:none">
		<path d="M 33.701 39.952 L 33.701 39.739 A 8.646 8.646 0 0 0 33.451 37.6 A 5.933 5.933 0 0 0 31.588 34.518 Q 29.805 32.96 26.771 32.717 A 14.595 14.595 0 0 0 25.604 32.672 Q 22.525 32.672 20.395 33.691 A 7.811 7.811 0 0 0 19.105 34.465 A 8.942 8.942 0 0 0 16.906 36.769 A 8.154 8.154 0 0 0 15.909 38.957 L 1.918 37.821 A 19.52 19.52 0 0 1 4.757 30.989 A 18.601 18.601 0 0 1 6.108 29.21 A 19.578 19.578 0 0 1 12.107 24.541 A 23.955 23.955 0 0 1 14.187 23.599 A 26.952 26.952 0 0 1 20.078 22.033 A 36.902 36.902 0 0 1 25.675 21.628 A 35.191 35.191 0 0 1 34.132 22.628 A 33.021 33.021 0 0 1 34.393 22.693 A 23.982 23.982 0 0 1 39.694 24.712 A 21.273 21.273 0 0 1 41.815 25.996 Q 45.064 28.233 46.946 31.731 A 15.322 15.322 0 0 1 48.493 36.232 A 21.204 21.204 0 0 1 48.828 40.094 L 48.828 76.884 L 34.482 76.884 L 34.482 69.32 L 34.056 69.32 A 15.17 15.17 0 0 1 30.54 73.812 Q 28.338 75.747 25.249 76.83 A 18.559 18.559 0 0 1 21.696 77.675 Q 20.015 77.912 18.126 77.913 A 30.506 30.506 0 0 1 18.111 77.913 A 25.453 25.453 0 0 1 13.03 77.427 A 20.105 20.105 0 0 1 8.807 76.085 A 14.706 14.706 0 0 1 2.362 70.651 A 13.921 13.921 0 0 1 0.436 65.957 Q 0.028 64.093 0.002 61.938 A 24.347 24.347 0 0 1 0 61.649 Q 0 57.104 1.669 54.014 A 13.514 13.514 0 0 1 6.215 49.043 A 21.237 21.237 0 0 1 11.088 46.702 A 25.106 25.106 0 0 1 12.767 46.202 A 48.694 48.694 0 0 1 19.484 44.959 A 54.22 54.22 0 0 1 20.49 44.852 A 284.083 284.083 0 0 0 22.754 44.607 Q 25.977 44.244 28.161 43.911 A 20.405 20.405 0 0 0 29.672 43.626 Q 31.442 43.218 32.387 42.58 A 2.861 2.861 0 0 0 33.665 40.5 A 4.104 4.104 0 0 0 33.701 39.952 Z M 33.807 57.388 L 33.807 51.599 Q 33.097 52.061 31.872 52.434 A 24.549 24.549 0 0 1 30.571 52.789 A 32.891 32.891 0 0 1 29.12 53.109 A 68.688 68.688 0 0 1 26.066 53.641 A 404.532 404.532 0 0 1 24.61 53.859 A 296.738 296.738 0 0 1 23.296 54.05 Q 20.721 54.427 18.777 55.237 A 13.708 13.708 0 0 0 18.644 55.293 A 8.865 8.865 0 0 0 17.024 56.185 A 6.672 6.672 0 0 0 15.554 57.583 A 5.272 5.272 0 0 0 14.553 59.933 A 7.177 7.177 0 0 0 14.453 61.152 A 6.717 6.717 0 0 0 14.738 63.162 A 5.125 5.125 0 0 0 16.708 65.857 A 8.318 8.318 0 0 0 19.725 67.185 Q 20.975 67.473 22.443 67.473 A 14.237 14.237 0 0 0 25.586 67.14 A 11.337 11.337 0 0 0 28.338 66.141 A 10.657 10.657 0 0 0 31.334 63.866 A 9.932 9.932 0 0 0 32.351 62.537 A 9.263 9.263 0 0 0 33.801 57.745 A 11.148 11.148 0 0 0 33.807 57.388 Z" id="0" vector-effect="non-scaling-stroke"/>
		<path d="M 75.71 97.338 L 60.583 97.338 L 60.583 22.338 L 75.497 22.338 L 75.497 31.5 L 76.172 31.5 Q 77.151 29.333 79.007 27.079 A 27.496 27.496 0 0 1 79.066 27.008 A 14.13 14.13 0 0 1 82.065 24.323 A 17.897 17.897 0 0 1 84.038 23.173 A 13.492 13.492 0 0 1 87.249 22.064 Q 89.257 21.628 91.691 21.628 A 20.589 20.589 0 0 1 102.699 24.735 A 20.109 20.109 0 0 1 108.669 30.474 A 26.599 26.599 0 0 1 110.76 34.075 A 27.864 27.864 0 0 1 112.876 40.368 Q 113.525 43.377 113.707 46.872 A 53.899 53.899 0 0 1 113.779 49.682 Q 113.779 57.436 111.664 63.126 A 25.954 25.954 0 0 1 110.849 65.076 A 25.195 25.195 0 0 1 107.642 70.281 A 19.829 19.829 0 0 1 102.894 74.558 Q 97.87 77.771 91.655 77.771 Q 87.252 77.771 84.18 76.315 A 17.035 17.035 0 0 1 81.232 74.553 A 13.785 13.785 0 0 1 79.155 72.64 A 20.684 20.684 0 0 1 77.352 70.284 A 16.003 16.003 0 0 1 76.172 68.148 L 75.71 68.148 L 75.71 97.338 Z M 75.391 49.611 A 29.716 29.716 0 0 0 75.649 53.63 Q 75.94 55.757 76.557 57.583 A 17.936 17.936 0 0 0 76.74 58.098 A 14.814 14.814 0 0 0 78.152 60.958 A 11.166 11.166 0 0 0 80.647 63.727 A 9.357 9.357 0 0 0 85.421 65.65 A 12.218 12.218 0 0 0 86.861 65.733 A 11.097 11.097 0 0 0 89.975 65.314 A 9.013 9.013 0 0 0 93.111 63.691 A 11.515 11.515 0 0 0 95.926 60.347 A 15.398 15.398 0 0 0 97 58.009 A 21.112 21.112 0 0 0 98.039 53.826 A 28.916 28.916 0 0 0 98.331 49.611 Q 98.331 44.928 97.039 41.362 A 18.012 18.012 0 0 0 97.017 41.301 A 14.36 14.36 0 0 0 95.52 38.293 A 11.137 11.137 0 0 0 93.147 35.69 Q 90.59 33.666 86.861 33.666 A 11.597 11.597 0 0 0 83.85 34.04 A 9.083 9.083 0 0 0 80.629 35.619 A 11.01 11.01 0 0 0 77.92 38.699 A 14.901 14.901 0 0 0 76.74 41.159 A 20.052 20.052 0 0 0 75.728 45.065 Q 75.391 47.178 75.391 49.611 Z" id="1" vector-effect="non-scaling-stroke"/>
		<path d="M 138.956 76.884 L 123.828 76.884 L 123.828 22.338 L 138.956 22.338 L 138.956 76.884 Z M 125.657 13.052 A 8.122 8.122 0 0 0 131.428 15.307 A 8.122 8.122 0 0 0 137.198 13.052 A 9.226 9.226 0 0 0 137.382 12.874 A 7.133 7.133 0 0 0 139.595 7.636 A 7.034 7.034 0 0 0 138.919 4.561 A 7.773 7.773 0 0 0 137.198 2.256 A 8.122 8.122 0 0 0 131.428 0.001 A 8.122 8.122 0 0 0 125.657 2.256 A 9.327 9.327 0 0 0 125.474 2.434 A 7.091 7.091 0 0 0 123.26 7.636 A 7.15 7.15 0 0 0 123.897 10.655 A 7.702 7.702 0 0 0 125.657 13.052 Z" id="2" vector-effect="non-scaling-stroke"/>
	</g>
</svg>