<svg viewBox="50 0 190.122 95.182" xmlns="http://www.w3.org/2000/svg">
	<g id="svgGroup" stroke-linecap="round" fill-rule="evenodd" font-size="9pt" stroke="#000" stroke-width="0.25mm" fill="none" style="stroke:#000;stroke-width:0.25mm;fill:none">
		<path d="M 15.128 72.727 L 0 72.727 L 0 18.182 L 14.666 18.182 L 14.666 27.699 L 15.234 27.699 A 17.487 17.487 0 0 1 16.78 23.98 A 12.633 12.633 0 0 1 20.241 20.011 A 13.221 13.221 0 0 1 28.338 17.401 A 20.866 20.866 0 0 1 29.75 17.451 A 26.155 26.155 0 0 1 30.788 17.543 A 21.312 21.312 0 0 1 31.877 17.687 Q 32.413 17.774 32.883 17.882 A 12.133 12.133 0 0 1 33.097 17.933 L 33.097 31.357 Q 32.134 31.068 30.505 30.837 A 38.21 38.21 0 0 0 30.149 30.788 A 30.615 30.615 0 0 0 28.347 30.602 A 22.855 22.855 0 0 0 26.705 30.54 Q 23.366 30.54 20.756 31.978 Q 18.146 33.416 16.637 35.973 A 10.881 10.881 0 0 0 15.211 40.346 A 13.653 13.653 0 0 0 15.128 41.868 L 15.128 72.727 Z" id="0" vector-effect="non-scaling-stroke"/>
		<path d="M 70.49 35.795 L 70.49 35.582 A 8.646 8.646 0 0 0 70.24 33.443 A 5.933 5.933 0 0 0 68.377 30.362 Q 66.594 28.804 63.56 28.561 A 14.595 14.595 0 0 0 62.393 28.516 Q 59.315 28.516 57.184 29.535 A 7.811 7.811 0 0 0 55.895 30.309 A 8.942 8.942 0 0 0 53.695 32.613 A 8.154 8.154 0 0 0 52.699 34.801 L 38.707 33.665 A 19.52 19.52 0 0 1 41.546 26.833 A 18.601 18.601 0 0 1 42.898 25.053 A 19.578 19.578 0 0 1 48.897 20.385 A 23.955 23.955 0 0 1 50.977 19.442 A 26.952 26.952 0 0 1 56.867 17.876 A 36.902 36.902 0 0 1 62.464 17.472 A 35.191 35.191 0 0 1 70.921 18.471 A 33.021 33.021 0 0 1 71.183 18.537 A 23.982 23.982 0 0 1 76.483 20.556 A 21.273 21.273 0 0 1 78.604 21.839 Q 81.854 24.077 83.736 27.575 A 15.322 15.322 0 0 1 85.283 32.076 A 21.204 21.204 0 0 1 85.618 35.937 L 85.618 72.727 L 71.271 72.727 L 71.271 65.163 L 70.845 65.163 A 15.17 15.17 0 0 1 67.33 69.656 Q 65.128 71.591 62.038 72.674 A 18.559 18.559 0 0 1 58.485 73.519 Q 56.805 73.756 54.915 73.757 A 30.506 30.506 0 0 1 54.901 73.757 A 25.453 25.453 0 0 1 49.819 73.271 A 20.105 20.105 0 0 1 45.597 71.928 A 14.706 14.706 0 0 1 39.151 66.495 A 13.921 13.921 0 0 1 37.226 61.8 Q 36.817 59.936 36.791 57.782 A 24.347 24.347 0 0 1 36.79 57.493 Q 36.79 52.947 38.459 49.858 A 13.514 13.514 0 0 1 43.004 44.886 A 21.237 21.237 0 0 1 47.877 42.546 A 25.106 25.106 0 0 1 49.556 42.045 A 48.694 48.694 0 0 1 56.274 40.803 A 54.22 54.22 0 0 1 57.28 40.696 A 284.083 284.083 0 0 0 59.544 40.451 Q 62.766 40.088 64.95 39.755 A 20.405 20.405 0 0 0 66.462 39.47 Q 68.232 39.061 69.176 38.423 A 2.861 2.861 0 0 0 70.455 36.343 A 4.104 4.104 0 0 0 70.49 35.795 Z M 70.597 53.232 L 70.597 47.443 Q 69.886 47.905 68.661 48.278 A 24.549 24.549 0 0 1 67.361 48.633 A 32.891 32.891 0 0 1 65.909 48.952 A 68.688 68.688 0 0 1 62.855 49.485 A 404.532 404.532 0 0 1 61.399 49.703 A 296.738 296.738 0 0 1 60.085 49.893 Q 57.51 50.271 55.566 51.08 A 13.708 13.708 0 0 0 55.433 51.136 A 8.865 8.865 0 0 0 53.813 52.029 A 6.672 6.672 0 0 0 52.344 53.427 A 5.272 5.272 0 0 0 51.342 55.777 A 7.177 7.177 0 0 0 51.243 56.996 A 6.717 6.717 0 0 0 51.528 59.006 A 5.125 5.125 0 0 0 53.498 61.701 A 8.318 8.318 0 0 0 56.515 63.029 Q 57.765 63.317 59.233 63.317 A 14.237 14.237 0 0 0 62.376 62.984 A 11.337 11.337 0 0 0 65.128 61.985 A 10.657 10.657 0 0 0 68.123 59.709 A 9.932 9.932 0 0 0 69.141 58.381 A 9.263 9.263 0 0 0 70.591 53.589 A 11.148 11.148 0 0 0 70.597 53.232 Z" id="1" vector-effect="non-scaling-stroke"/>
		<path d="M 132.955 27.344 L 133.416 27.344 L 133.416 0 L 148.509 0 L 148.509 72.727 L 133.594 72.727 L 133.594 63.991 L 132.955 63.991 Q 131.889 66.264 129.954 68.484 A 14.029 14.029 0 0 1 126.924 71.068 A 17.743 17.743 0 0 1 124.947 72.159 Q 122.164 73.478 118.289 73.602 A 25.524 25.524 0 0 1 117.472 73.615 Q 111.257 73.615 106.232 70.401 A 20.354 20.354 0 0 1 100.313 64.539 A 26.594 26.594 0 0 1 98.278 60.92 A 29.072 29.072 0 0 1 96.175 54.416 Q 95.555 51.384 95.4 47.899 A 53.424 53.424 0 0 1 95.348 45.526 Q 95.348 36.151 98.366 29.918 A 25.398 25.398 0 0 1 101.514 24.912 A 19.607 19.607 0 0 1 106.41 20.579 A 20.561 20.561 0 0 1 117.436 17.472 A 22.6 22.6 0 0 1 120.66 17.689 Q 122.385 17.938 123.831 18.472 A 12.209 12.209 0 0 1 125.089 19.016 A 17.003 17.003 0 0 1 128.022 20.868 A 13.655 13.655 0 0 1 130.06 22.852 A 23.751 23.751 0 0 1 131.643 24.979 Q 132.426 26.174 132.955 27.344 Z M 122.266 61.577 A 11.087 11.087 0 0 0 125.351 61.165 A 8.988 8.988 0 0 0 128.462 59.57 A 11.439 11.439 0 0 0 131.178 56.431 A 15.454 15.454 0 0 0 132.369 53.942 Q 133.736 50.32 133.736 45.455 A 29.565 29.565 0 0 0 133.478 41.442 Q 133.187 39.323 132.569 37.514 A 17.494 17.494 0 0 0 132.386 37.003 A 14.389 14.389 0 0 0 130.945 34.132 A 10.826 10.826 0 0 0 128.48 31.463 Q 125.923 29.51 122.266 29.51 A 11.376 11.376 0 0 0 119.177 29.911 A 9.034 9.034 0 0 0 115.98 31.534 A 11.426 11.426 0 0 0 113.105 34.959 A 15.077 15.077 0 0 0 112.109 37.145 Q 110.8 40.718 110.795 45.42 A 33.95 33.95 0 0 0 110.795 45.455 A 28.916 28.916 0 0 0 111.088 49.67 A 21.112 21.112 0 0 0 112.127 53.853 Q 113.459 57.493 115.998 59.535 A 9.177 9.177 0 0 0 120.583 61.465 A 12.239 12.239 0 0 0 122.266 61.577 Z" id="2" vector-effect="non-scaling-stroke"/>
		<path d="M 160.724 91.619 L 164.134 80.327 A 23.319 23.319 0 0 0 166.365 80.899 Q 167.737 81.175 168.945 81.214 A 8.061 8.061 0 0 0 169.212 81.219 Q 170.249 81.219 171.149 80.945 A 5.657 5.657 0 0 0 172.674 80.22 Q 173.921 79.38 174.803 77.61 A 12.089 12.089 0 0 0 175.249 76.598 L 176.136 74.29 L 156.57 18.182 L 172.479 18.182 L 183.771 58.239 L 184.339 58.239 L 195.739 18.182 L 211.754 18.182 L 190.554 78.622 A 27.421 27.421 0 0 1 188.153 83.805 A 23.574 23.574 0 0 1 186.417 86.31 A 17.409 17.409 0 0 1 179.83 91.388 A 19.24 19.24 0 0 1 175.444 92.733 Q 173.421 93.112 171.108 93.171 A 33.933 33.933 0 0 1 170.241 93.182 A 33.064 33.064 0 0 1 166.792 93.008 A 27.492 27.492 0 0 1 164.862 92.738 A 28.321 28.321 0 0 1 163.106 92.373 Q 161.745 92.041 160.724 91.619 Z" id="3" vector-effect="non-scaling-stroke"/>
		<path d="M 249.112 35.795 L 249.112 35.582 A 8.646 8.646 0 0 0 248.863 33.443 A 5.933 5.933 0 0 0 246.999 30.362 Q 245.217 28.804 242.182 28.561 A 14.595 14.595 0 0 0 241.016 28.516 Q 237.937 28.516 235.807 29.535 A 7.811 7.811 0 0 0 234.517 30.309 A 8.942 8.942 0 0 0 232.317 32.613 A 8.154 8.154 0 0 0 231.321 34.801 L 217.33 33.665 A 19.52 19.52 0 0 1 220.168 26.833 A 18.601 18.601 0 0 1 221.52 25.053 A 19.578 19.578 0 0 1 227.519 20.385 A 23.955 23.955 0 0 1 229.599 19.442 A 26.952 26.952 0 0 1 235.49 17.876 A 36.902 36.902 0 0 1 241.087 17.472 A 35.191 35.191 0 0 1 249.544 18.471 A 33.021 33.021 0 0 1 249.805 18.537 A 23.982 23.982 0 0 1 255.106 20.556 A 21.273 21.273 0 0 1 257.227 21.839 Q 260.476 24.077 262.358 27.575 A 15.322 15.322 0 0 1 263.905 32.076 A 21.204 21.204 0 0 1 264.24 35.937 L 264.24 72.727 L 249.893 72.727 L 249.893 65.163 L 249.467 65.163 A 15.17 15.17 0 0 1 245.952 69.656 Q 243.75 71.591 240.661 72.674 A 18.559 18.559 0 0 1 237.107 73.519 Q 235.427 73.756 233.538 73.757 A 30.506 30.506 0 0 1 233.523 73.757 A 25.453 25.453 0 0 1 228.442 73.271 A 20.105 20.105 0 0 1 224.219 71.928 A 14.706 14.706 0 0 1 217.773 66.495 A 13.921 13.921 0 0 1 215.848 61.8 Q 215.439 59.936 215.414 57.782 A 24.347 24.347 0 0 1 215.412 57.493 Q 215.412 52.947 217.081 49.858 A 13.514 13.514 0 0 1 221.626 44.886 A 21.237 21.237 0 0 1 226.499 42.546 A 25.106 25.106 0 0 1 228.178 42.045 A 48.694 48.694 0 0 1 234.896 40.803 A 54.22 54.22 0 0 1 235.902 40.696 A 284.083 284.083 0 0 0 238.166 40.451 Q 241.388 40.088 243.572 39.755 A 20.405 20.405 0 0 0 245.084 39.47 Q 246.854 39.061 247.798 38.423 A 2.861 2.861 0 0 0 249.077 36.343 A 4.104 4.104 0 0 0 249.112 35.795 Z M 249.219 53.232 L 249.219 47.443 Q 248.509 47.905 247.283 48.278 A 24.549 24.549 0 0 1 245.983 48.633 A 32.891 32.891 0 0 1 244.531 48.952 A 68.688 68.688 0 0 1 241.477 49.485 A 404.532 404.532 0 0 1 240.021 49.703 A 296.738 296.738 0 0 1 238.707 49.893 Q 236.132 50.271 234.188 51.08 A 13.708 13.708 0 0 0 234.055 51.136 A 8.865 8.865 0 0 0 232.435 52.029 A 6.672 6.672 0 0 0 230.966 53.427 A 5.272 5.272 0 0 0 229.965 55.777 A 7.177 7.177 0 0 0 229.865 56.996 A 6.717 6.717 0 0 0 230.15 59.006 A 5.125 5.125 0 0 0 232.12 61.701 A 8.318 8.318 0 0 0 235.137 63.029 Q 236.387 63.317 237.855 63.317 A 14.237 14.237 0 0 0 240.998 62.984 A 11.337 11.337 0 0 0 243.75 61.985 A 10.657 10.657 0 0 0 246.745 59.709 A 9.932 9.932 0 0 0 247.763 58.381 A 9.263 9.263 0 0 0 249.213 53.589 A 11.148 11.148 0 0 0 249.219 53.232 Z" id="4" vector-effect="non-scaling-stroke"/>
		<path d="M 275.994 0 L 291.122 0 L 291.122 72.727 L 275.994 72.727 L 275.994 0 Z" id="5" vector-effect="non-scaling-stroke"/>
	</g>
</svg>